<svg width="146" height="151" viewBox="0 0 146 151" fill="none" xmlns="http://www.w3.org/2000/svg">
<path fill-rule="evenodd" clip-rule="evenodd" d="M57.207 0V6.039H139.314V47.992H133.912V11.586H133.32V11.442H51.41V0.119H45.371V16.809H45.583V17.481H90.657V22.882H45.583V28.921H45.686V144.002H40.166V28.921H40.174V22.882H22.693V23.038H22.686V29.289H17.283V17.539H40.002V16.809H40.166V0.119H40.002V0H0.001V0.566H0V150.091H6.039V150.041H51.725V150.036V144.002V28.921H57.601V92.399H63.64V28.921H69.95V138.945H70.169V139.192H104.865V144.002H63.64V99.002H57.601V144.002V149.719V150.041H110.904V149.356V144.002V65.731H139.314V149.672H145.353V60.415H145.23V59.692H110.904V34.532H110.117V34.323H75.989V28.921H116.189V54.125H122.228V24.436H122.008V22.882H96.696V17.481H127.873V47.992V54.031V54.125H133.912V54.031H139.314V54.125H145.353V0H57.207ZM6 6H34.088V11.461H11.205V11.615V17.5V29.25V34.177V35.289H28.686V34.541V29.25V28.882H34.088V40.416H17.244H11.205V46.455V143.963H6V6ZM76 133.79H104.876V41H76V133.79ZM17 47H33.844V144.508H28.442V81.123H22.403V144.508H17V47ZM82.175 46V46.126H82V126.765H82.175V127.591H99.179V126.765H99.283V46.126H99.179V46H82.175ZM88 121.513H93.204V52H88V121.513ZM23 75.082H29.039V52H23V75.082ZM127 150.076H133.04V71H127V150.076ZM116 150.076H122.039V71H116V150.076Z" fill="#09D1B4"/>
</svg>
